<mxfile host="app.diagrams.net" modified="2021-10-13T18:18:52.258Z" agent="5.0 (X11)" etag="29fpRYQ8qFi34lADRfNf" version="15.4.3" type="github">
  <diagram id="C9lS-wYsNqWMx0vLT0c6" name="Page-1">
    <mxGraphModel dx="796" dy="481" grid="1" gridSize="10" guides="1" tooltips="1" connect="1" arrows="1" fold="1" page="1" pageScale="1" pageWidth="827" pageHeight="1169" math="0" shadow="0">
      <root>
        <mxCell id="0" />
        <mxCell id="1" parent="0" />
        <mxCell id="u7NUlr1dKi2Ci9r-pJIR-1" value="USERS" style="rounded=0;whiteSpace=wrap;html=1;" vertex="1" parent="1">
          <mxGeometry x="330" y="540" width="120" height="60" as="geometry" />
        </mxCell>
        <mxCell id="u7NUlr1dKi2Ci9r-pJIR-2" value="FREE" style="rounded=0;whiteSpace=wrap;html=1;" vertex="1" parent="1">
          <mxGeometry x="210" y="720" width="120" height="60" as="geometry" />
        </mxCell>
        <mxCell id="u7NUlr1dKi2Ci9r-pJIR-3" value="PREMIUM" style="rounded=0;whiteSpace=wrap;html=1;" vertex="1" parent="1">
          <mxGeometry x="450" y="720" width="120" height="60" as="geometry" />
        </mxCell>
        <mxCell id="u7NUlr1dKi2Ci9r-pJIR-5" style="edgeStyle=orthogonalEdgeStyle;rounded=0;orthogonalLoop=1;jettySize=auto;html=1;exitX=0;exitY=0.5;exitDx=0;exitDy=0;" edge="1" parent="1" source="u7NUlr1dKi2Ci9r-pJIR-4" target="u7NUlr1dKi2Ci9r-pJIR-1">
          <mxGeometry relative="1" as="geometry" />
        </mxCell>
        <mxCell id="u7NUlr1dKi2Ci9r-pJIR-6" style="orthogonalLoop=1;jettySize=auto;html=1;exitX=0.5;exitY=0;exitDx=0;exitDy=0;entryX=0;entryY=0;entryDx=0;entryDy=0;rounded=0;" edge="1" parent="1" source="u7NUlr1dKi2Ci9r-pJIR-4" target="u7NUlr1dKi2Ci9r-pJIR-3">
          <mxGeometry relative="1" as="geometry" />
        </mxCell>
        <mxCell id="u7NUlr1dKi2Ci9r-pJIR-8" style="edgeStyle=none;rounded=0;orthogonalLoop=1;jettySize=auto;html=1;exitX=0.5;exitY=1;exitDx=0;exitDy=0;entryX=1;entryY=0;entryDx=0;entryDy=0;" edge="1" parent="1" source="u7NUlr1dKi2Ci9r-pJIR-4" target="u7NUlr1dKi2Ci9r-pJIR-2">
          <mxGeometry relative="1" as="geometry" />
        </mxCell>
        <mxCell id="u7NUlr1dKi2Ci9r-pJIR-4" value="" style="triangle;whiteSpace=wrap;html=1;rotation=90;" vertex="1" parent="1">
          <mxGeometry x="363.75" y="655" width="52.5" height="65" as="geometry" />
        </mxCell>
        <mxCell id="u7NUlr1dKi2Ci9r-pJIR-15" value="USERS" style="rounded=0;whiteSpace=wrap;html=1;" vertex="1" parent="1">
          <mxGeometry x="760" y="540" width="120" height="60" as="geometry" />
        </mxCell>
        <mxCell id="u7NUlr1dKi2Ci9r-pJIR-16" value="FREE" style="rounded=0;whiteSpace=wrap;html=1;" vertex="1" parent="1">
          <mxGeometry x="640" y="720" width="120" height="60" as="geometry" />
        </mxCell>
        <mxCell id="u7NUlr1dKi2Ci9r-pJIR-17" value="PREMIUM" style="rounded=0;whiteSpace=wrap;html=1;" vertex="1" parent="1">
          <mxGeometry x="880" y="720" width="120" height="60" as="geometry" />
        </mxCell>
        <mxCell id="u7NUlr1dKi2Ci9r-pJIR-18" style="edgeStyle=orthogonalEdgeStyle;rounded=0;orthogonalLoop=1;jettySize=auto;html=1;exitX=0;exitY=0.5;exitDx=0;exitDy=0;" edge="1" parent="1" source="u7NUlr1dKi2Ci9r-pJIR-21" target="u7NUlr1dKi2Ci9r-pJIR-15">
          <mxGeometry relative="1" as="geometry" />
        </mxCell>
        <mxCell id="u7NUlr1dKi2Ci9r-pJIR-19" style="orthogonalLoop=1;jettySize=auto;html=1;exitX=0.5;exitY=0;exitDx=0;exitDy=0;entryX=0;entryY=0;entryDx=0;entryDy=0;rounded=0;" edge="1" parent="1" source="u7NUlr1dKi2Ci9r-pJIR-21" target="u7NUlr1dKi2Ci9r-pJIR-17">
          <mxGeometry relative="1" as="geometry" />
        </mxCell>
        <mxCell id="u7NUlr1dKi2Ci9r-pJIR-20" style="edgeStyle=none;rounded=0;orthogonalLoop=1;jettySize=auto;html=1;exitX=0.5;exitY=1;exitDx=0;exitDy=0;entryX=1;entryY=0;entryDx=0;entryDy=0;" edge="1" parent="1" source="u7NUlr1dKi2Ci9r-pJIR-21" target="u7NUlr1dKi2Ci9r-pJIR-16">
          <mxGeometry relative="1" as="geometry" />
        </mxCell>
        <mxCell id="u7NUlr1dKi2Ci9r-pJIR-21" value="" style="triangle;whiteSpace=wrap;html=1;rotation=90;" vertex="1" parent="1">
          <mxGeometry x="793.75" y="655" width="52.5" height="65" as="geometry" />
        </mxCell>
      </root>
    </mxGraphModel>
  </diagram>
</mxfile>
